<?xml version="1.0" encoding="utf-8"?>
<!-- Generator: Adobe Illustrator 20.1.0, SVG Export Plug-In . SVG Version: 6.00 Build 0)  -->
<svg version="1.1" id="Layer_1" xmlns="http://www.w3.org/2000/svg" xmlns:xlink="http://www.w3.org/1999/xlink" x="0px" y="0px"
	 viewBox="0 0 292.3 300" style="enable-background:new 0 0 292.3 106;" xml:space="preserve">
<style type="text/css">
	.st0{fill:#B7B7B7;}
	.st1{fill:rgba(255,255,255,0.2);}
</style>
<g>
	<path class="st0" d="M170,67.6l-4.1,2.5h-5.5c3.4-3.5,5.5-8.3,5.5-13.6c0-10.8-8.8-19.5-19.5-19.5c-10.8,0-19.5,8.8-19.5,19.5
		c0,5.3,2.1,10,5.5,13.6h-5.5l-4.1-2.5c-0.5-0.3-1,0.2-0.7,0.7l4.8,7.8h15v-6.8c-5.2-1.9-9-6.9-9-12.8c0-7.5,6.1-13.6,13.6-13.6
		c7.5,0,13.6,6.1,13.6,13.6c0,5.9-3.8,10.9-9,12.8v6.8h15l4.8-7.8C171,67.9,170.4,67.3,170,67.6z"/>
	<g>
		<path class="st0" d="M115.1,14.4l4.5,5.1c1.7,2,1.8,4.4-0.3,6.2c-2.1,1.8-4.5,1.4-6.2-0.5l-4.5-5.1c-1.7-2-1.8-4.4,0.3-6.2
			C110.9,12.1,113.3,12.4,115.1,14.4z M113,16.7c-0.4-0.5-1.3-1.4-2.2-0.6c-0.9,0.8-0.1,1.7,0.3,2.2l3.9,4.4
			c0.4,0.5,1.3,1.4,2.2,0.6c0.9-0.8,0.1-1.7-0.3-2.2L113,16.7z"/>
		<path class="st0" d="M130.5,2.2l5.3,14.2l-2.9,1.1L130,9.6l0.5,4.7l-2.7-3.8l2.9,7.8l-2.9,1.1l-5.3-14.2l2.9-1.1l2.7,3.9l-0.5-4.7
			L130.5,2.2z"/>
		<path class="st0" d="M142.1,15.1L142.3,0l8.6,0.1l0,3.1l-5.4-0.1l0,2.9l4.7,0.1l0,3.1l-4.7-0.1l0,3l5.4,0.1l0,3.1L142.1,15.1z"/>
		<path class="st0" d="M168,11.3l-1.6,4.2c-0.9,2.4-3,3.6-5.6,2.7c-2.6-1-3.3-3.3-2.4-5.7l2.4-6.3c0.9-2.4,3-3.6,5.6-2.7
			c2.6,1,3.4,3.2,2.4,5.7l-0.3,0.8l-2.9-1.1l0.2-0.4c0.2-0.6,0.6-1.8-0.5-2.2c-1.1-0.4-1.6,0.7-1.8,1.3l-2.1,5.5
			c-0.2,0.6-0.6,1.8,0.5,2.2c1.1,0.4,1.6-0.7,1.8-1.3l0.4-1l-1.4-0.5l1.1-2.8L168,11.3z"/>
		<path class="st0" d="M174.8,26.5l1.5-2.2l-1.8-1.6l-2,1.8l-2.3-2.1l11.7-9.9l3.7,3.3l-8.4,12.8L174.8,26.5z M176.7,20.9l1.2,1
			l3.7-5.4L176.7,20.9z"/>
	</g>
	<g>
		<path class="st0" d="M121.2,106l-0.2-1.3h-1.2l-0.2,1.3h-1.6l1.1-7.6h2.5l1.1,7.6H121.2z M120.1,103.2h0.8l-0.4-3.2L120.1,103.2z"
			/>
		<path class="st0" d="M128.7,106v-7.6h4.3v1.5h-2.7v1.5h2.3v1.5h-2.3v1.5h2.7v1.5H128.7z"/>
		<path class="st0" d="M142.3,102.8l1.1,3.2h-1.6l-1-2.9c0,0,0,0-0.3,0v2.9H139v-7.6h2.1c1.6,0,2.2,1.2,2.2,2.3
			C143.3,101.7,143,102.4,142.3,102.8z M140.8,101.6c0.9,0,1-0.5,1-0.8c0-0.3-0.1-0.8-0.9-0.8h-0.3v1.7H140.8z"/>
		<path class="st0" d="M153.6,104.5v1.5h-4.3v-1.5h1.4v-4.6h-1.3v-1.5h4.2v1.5h-1.3v4.6H153.6z"/>
		<path class="st0" d="M162.6,106l-0.2-1.3h-1.2l-0.2,1.3h-1.6l1.1-7.6h2.5l1.1,7.6H162.6z M161.4,103.2h0.8l-0.4-3.2L161.4,103.2z"
			/>
		<path class="st0" d="M170,98.4h1.6v6h2.7v1.6H170V98.4z"/>
	</g>
	<path class="st1" d="M292.3,31.4c-0.1-1.3-1.9-1.2-1.9-1.2s-94.9,0-99.1,0.2c-4.2,0.2-4.4-0.8-5.8,6.5c-1,5.2-3.5,7.8-4.8,8.9
		c-0.2,0.1-0.3,0.3-0.4,0.5c-4.4-14.6-18-25.2-33.9-25.2c-16.1,0-29.7,10.8-34,25.5c-0.2-0.3-0.4-0.6-0.7-0.8
		c-1.4-1.1-3.8-3.7-4.8-8.9c-1.4-7.3-1.6-6.3-5.8-6.5c-4.2-0.2-99.1-0.2-99.1-0.2S0.2,30.1,0,31.4c-0.1,1.3,0.3,2.2,1.2,2.5
		c0.9,0.3,2.2,1.5,2.6,2.2c0.2,0.5,0.4,1.1,0.5,1.4c0,0.1,0.1,0.3,0.1,0.4c0.1,0.5,0.4,2.4,2.9,3.1c0.8,0.2,1.4,0.8,1.7,1.5
		c0.5,1.4,1.8,3.7,4.4,4.5c0.8,0.3,1.5,0.9,1.7,1.8c0.3,1.3,1.2,3,3.7,3.6c0.8,0.2,1.4,0.7,1.7,1.5c0.7,1.7,2.5,4.4,6.9,5.1
		c6.3,0.9,63.9,13.9,67.1,14.6c0.1,0,0.2,0.1,0.3,0.1c0.8,0.3,4.1,1.7,5.3,5.5c1.5,4.3,5.9,5,5.9,5s23.3,4.2,29,6.1
		c0.2,0.1,0.2,0.1,0.2,0c3.6,1.2,7.4,1.9,11.3,1.9c4.4,0,8.6-0.8,12.5-2.3c7.3-2,27.6-5.7,27.6-5.7s4.4-0.8,5.9-5
		c1.3-3.7,4.5-5.2,5.3-5.5c0.1,0,0.2-0.1,0.3-0.1c3.2-0.7,60.7-13.6,67.1-14.6c4.4-0.7,6.2-3.4,6.9-5.1c0.3-0.7,1-1.3,1.7-1.5
		c2.5-0.6,3.4-2.3,3.7-3.6c0.2-0.8,0.8-1.5,1.7-1.8c2.6-0.8,3.8-3.1,4.4-4.5c0.3-0.7,0.9-1.3,1.7-1.5c2.4-0.7,2.8-2.5,2.9-3.1
		c0-0.1,0-0.3,0.1-0.4c0.1-0.3,0.3-0.9,0.5-1.4c0.3-0.8,1.7-1.9,2.6-2.2S292.4,32.7,292.3,31.4z M16.5,38.3c-0.4,0-0.8-0.3-0.8-0.8
		c0-0.4,0.3-0.8,0.8-0.8h80.7c0.4,0,0.8,0.3,0.8,0.8c0,0.4-0.3,0.8-0.8,0.8H16.5z M102.1,59.2H62.3c-0.4,0-0.8-0.3-0.8-0.8
		c0-0.4,0.3-0.8,0.8-0.8h39.7c0.4,0,0.8,0.3,0.8,0.8C102.8,58.8,102.5,59.2,102.1,59.2z M102.1,52.2H37.3c-0.4,0-0.8-0.3-0.8-0.8
		s0.3-0.8,0.8-0.8h64.8c0.4,0,0.8,0.3,0.8,0.8S102.5,52.2,102.1,52.2z M102.1,45.2H25.2c-0.4,0-0.8-0.3-0.8-0.8
		c0-0.4,0.3-0.8,0.8-0.8h76.8c0.4,0,0.8,0.3,0.8,0.8C102.8,44.9,102.5,45.2,102.1,45.2z M146.3,88.2c-17.5,0-31.7-14.2-31.7-31.7
		s14.2-31.7,31.7-31.7S178,39.1,178,56.6S163.8,88.2,146.3,88.2z M230.3,59.9h-39.7c-0.4,0-0.8-0.3-0.8-0.8c0-0.4,0.3-0.8,0.8-0.8
		h39.7c0.4,0,0.8,0.3,0.8,0.8C231,59.6,230.7,59.9,230.3,59.9z M255.3,52.9h-64.8c-0.4,0-0.8-0.3-0.8-0.8s0.3-0.8,0.8-0.8h64.8
		c0.4,0,0.8,0.3,0.8,0.8S255.7,52.9,255.3,52.9z M267.3,46h-76.8c-0.4,0-0.8-0.3-0.8-0.8c0-0.4,0.3-0.8,0.8-0.8h76.8
		c0.4,0,0.8,0.3,0.8,0.8C268.1,45.6,267.8,46,267.3,46z M276.1,39h-80.7c-0.4,0-0.8-0.3-0.8-0.8c0-0.4,0.3-0.8,0.8-0.8h80.7
		c0.4,0,0.8,0.3,0.8,0.8C276.8,38.7,276.5,39,276.1,39z"/>
</g>
</svg>
